# xmcd
#
# Track frame offsets:
#	150
#	59440
#	96795
#	154935
#	191147
#
# Disc length: 3385 seconds
#
# Revision: 2
# Processed by: cddbd v1.5.2PL0 Copyright (c) Steve Scherf et al.
# Submitted via: audiograbber 1.83.01
#
DISCID=400d3705
DTITLE=J.R.R. Tolkien - The Lord of the Rings - 01 The Shadow of the Past
DYEAR=1982
DGENRE=Radio Drama
TTITLE0=Opening Titles
TTITLE1=Bilbo's Eleventy - Oneth Birthday Party
TTITLE2=Curse the Baggins
TTITLE3=One Ring to Rule Them all
TTITLE4=Frodo the Ring Bearer
EXTD=BBC Radio Collection
EXTT0=
EXTT1=
EXTT2=
EXTT3=
EXTT4=
PLAYORDER=
